<svg width="81" height="64" viewBox="0 0 81 64" fill="none" xmlns="http://www.w3.org/2000/svg">
<path d="M30.3792 40.25C28.5148 40.25 27.0034 41.5371 27.0034 43.125C27.0034 44.7129 28.5148 46 30.3792 46C32.2435 46 33.7549 44.7129 33.7549 43.125C33.7549 41.5371 32.2435 40.25 30.3792 40.25Z" fill="white"/>
<path d="M47.2555 43.125C47.2555 41.5371 48.7668 40.25 50.6312 40.25C52.4956 40.25 54.0069 41.5371 54.0069 43.125C54.0069 44.7129 52.4956 46 50.6312 46C48.7668 46 47.2555 44.7129 47.2555 43.125Z" fill="white"/>
<path fill-rule="evenodd" clip-rule="evenodd" d="M40.5048 0C36.7763 0 33.754 2.57436 33.754 5.75C33.754 7.87831 35.1115 9.73656 37.1294 10.7308V17.25H20.2524C14.6599 17.25 10.1262 21.1116 10.1262 25.875V54.625C10.1262 59.3886 14.6599 63.25 20.2524 63.25H60.7571C66.3498 63.25 70.8833 59.3886 70.8833 54.625V25.875C70.8833 21.1116 66.3498 17.25 60.7571 17.25H43.8801V10.7308C45.898 9.73656 47.2555 7.87831 47.2555 5.75C47.2555 2.57436 44.2332 0 40.5048 0ZM16.877 25.875C16.877 24.2872 18.3882 23 20.2524 23H24.9171L29.802 31.3214C30.9455 33.2695 33.2831 34.5 35.84 34.5H45.1695C47.7264 34.5 50.0639 33.2695 51.2074 31.3214L56.0923 23H60.7571C62.6213 23 64.1325 24.2872 64.1325 25.875V54.625C64.1325 56.2129 62.6213 57.5 60.7571 57.5H20.2524C18.3882 57.5 16.877 56.2129 16.877 54.625V25.875ZM45.1695 28.75L48.5449 23H32.4647L35.84 28.75H45.1695Z" fill="white"/>
<path d="M3.37574 37.375C1.51137 37.375 0 38.6621 0 40.25V46C0 47.5879 1.51137 48.875 3.37574 48.875C5.24009 48.875 6.75148 47.5879 6.75148 46V40.25C6.75148 38.6621 5.24009 37.375 3.37574 37.375Z" fill="white"/>
<path d="M74.2587 40.25C74.2587 38.6621 75.77 37.375 77.6344 37.375C79.4988 37.375 81.0101 38.6621 81.0101 40.25V46C81.0101 47.5879 79.4988 48.875 77.6344 48.875C75.77 48.875 74.2587 47.5879 74.2587 46V40.25Z" fill="white"/>
</svg>
