<svg width="45" height="45" viewBox="0 0 45 45" fill="none" xmlns="http://www.w3.org/2000/svg">
<g clip-path="url(#clip0_46_663)">
<path fill-rule="evenodd" clip-rule="evenodd" d="M22.5 0C34.9268 0 45 10.3273 45 23.0691C45 33.2594 38.5605 41.9039 29.6257 44.9572C28.485 45.1844 28.08 44.464 28.08 43.8498C28.08 43.0892 28.107 40.6053 28.107 37.5183C28.107 35.3673 27.387 33.9634 26.5793 33.2479C31.59 32.6764 36.855 30.7255 36.855 21.865C36.855 19.345 35.982 17.2886 34.5375 15.6731C34.7715 15.0904 35.5432 12.7439 34.317 9.5669C34.317 9.5669 32.4315 8.94876 28.1362 11.9323C26.3385 11.4215 24.4125 11.1645 22.5 11.1555C20.5875 11.1645 18.6638 11.4215 16.8683 11.9323C12.5685 8.94876 10.6785 9.5669 10.6785 9.5669C9.45675 12.7439 10.2285 15.0904 10.4603 15.6731C9.0225 17.2886 8.14276 19.345 8.14276 21.865C8.14276 30.703 13.3965 32.6839 18.3938 33.2666C17.7503 33.8426 17.1675 34.8587 16.965 36.3505C15.6825 36.94 12.4245 37.9602 10.4175 34.4345C10.4175 34.4345 9.22725 32.2179 6.96825 32.0559C6.96825 32.0559 4.7745 32.0268 6.81525 33.4578C6.81525 33.4578 8.289 34.1665 9.31275 36.8328C9.31275 36.8328 10.6335 40.9502 16.893 39.5552C16.9043 41.4834 16.9245 43.3008 16.9245 43.8498C16.9245 44.4595 16.5105 45.1731 15.3877 44.9594C6.44624 41.9106 0 33.2616 0 23.0691C0 10.3273 10.0755 0 22.5 0Z" fill="white"/>
</g>
<defs>
<clipPath id="clip0_46_663">
<rect width="45" height="45" fill="white"/>
</clipPath>
</defs>
</svg>
