<svg width="45" height="45" viewBox="0 0 45 45" fill="none" xmlns="http://www.w3.org/2000/svg">
<path fill-rule="evenodd" clip-rule="evenodd" d="M9.68179 22.5C9.68179 21.071 9.91913 19.701 10.3427 18.416L2.92821 12.754C1.48316 15.688 0.669006 18.994 0.669006 22.5C0.669006 26.003 1.48216 29.307 2.92521 32.239L10.3357 26.566C9.91612 25.287 9.68179 23.922 9.68179 22.5Z" fill="#FBBC05"/>
<path fill-rule="evenodd" clip-rule="evenodd" d="M22.7003 9.5C25.8047 9.5 28.6087 10.6 30.8118 12.4L37.2209 6C33.3153 2.6 28.3082 0.5 22.7003 0.5C13.9939 0.5 6.51131 5.479 2.92822 12.754L10.3427 18.416C12.0512 13.23 16.9211 9.5 22.7003 9.5Z" fill="#EB4335"/>
<path fill-rule="evenodd" clip-rule="evenodd" d="M22.7003 35.5C16.9211 35.5 12.0512 31.77 10.3427 26.584L2.92822 32.245C6.5113 39.521 13.9939 44.5 22.7003 44.5C28.0739 44.5 33.2042 42.592 37.0546 39.017L30.0166 33.576C28.0308 34.827 25.5303 35.5 22.7003 35.5Z" fill="#34A853"/>
<path fill-rule="evenodd" clip-rule="evenodd" d="M43.7301 22.5C43.7301 21.2 43.5298 19.8 43.2294 18.5H22.7003V27H34.517C33.9262 29.898 32.3179 32.126 30.0166 33.576L37.0546 39.017C41.0994 35.263 43.7301 29.671 43.7301 22.5Z" fill="#4285F4"/>
</svg>
