<svg width="79" height="64" viewBox="0 0 79 64" fill="none" xmlns="http://www.w3.org/2000/svg">
<path d="M64.116 51.3886H14.2251C13.62 51.3877 13.04 51.1907 12.6125 50.8409C12.185 50.491 11.9449 50.0169 11.9449 49.5225V10.6712C11.9449 10.4261 12.004 10.1834 12.1188 9.95703C12.2336 9.73062 12.4019 9.52491 12.614 9.35162C12.8261 9.17834 13.0779 9.04088 13.3551 8.9471C13.6322 8.85332 13.9292 8.80505 14.2292 8.80505C14.5292 8.80505 14.8262 8.85332 15.1034 8.9471C15.3805 9.04088 15.6323 9.17834 15.8444 9.35162C16.0565 9.52491 16.2248 9.73062 16.3396 9.95703C16.4544 10.1834 16.5135 10.4261 16.5135 10.6712V47.6564H64.1119C64.7177 47.6564 65.2987 47.853 65.7271 48.203C66.1555 48.553 66.3962 49.0276 66.3962 49.5225C66.3962 50.0174 66.1555 50.4921 65.7271 50.8421C65.2987 51.192 64.7177 51.3886 64.1119 51.3886H64.116ZM21.115 43.8568V23.2017C21.1161 22.7776 21.3228 22.3712 21.6898 22.0713C22.0569 21.7714 22.5544 21.6026 23.0735 21.6017H26.3144C26.8335 21.6026 27.331 21.7714 27.698 22.0713C28.0651 22.3712 28.2718 22.7776 28.2729 23.2017V43.8568H21.115ZM32.5982 43.8568V11.8131C32.5992 11.389 32.8059 10.9825 33.173 10.6827C33.5401 10.3828 34.0376 10.2139 34.5567 10.2131H37.7975C38.3166 10.2139 38.8142 10.3828 39.1812 10.6827C39.5483 10.9825 39.755 11.389 39.7561 11.8131V43.8568H32.5982ZM44.0813 43.8568V23.2017C44.0824 22.7776 44.2891 22.3712 44.6562 22.0713C45.0232 21.7714 45.5207 21.6026 46.0398 21.6017H49.2807C49.7998 21.6026 50.2973 21.7714 50.6644 22.0713C51.0314 22.3712 51.2381 22.7776 51.2392 23.2017V43.8568H44.0813ZM55.5686 43.8568V34.5836C55.5697 34.1595 55.7764 33.7531 56.1434 33.4532C56.5105 33.1533 57.008 32.9845 57.5271 32.9836H60.7639C61.283 32.9845 61.7805 33.1533 62.1475 33.4532C62.5146 33.7531 62.7213 34.1595 62.7224 34.5836V43.8568H55.5686Z" fill="white"/>
</svg>
