<svg width="64" height="64" viewBox="0 0 64 64" fill="none" xmlns="http://www.w3.org/2000/svg">
<path d="M8 19.2C8 16.2131 8 14.7196 8.58131 13.5787C9.09261 12.5752 9.90851 11.7593 10.9121 11.248C12.0529 10.6667 13.5464 10.6667 16.5333 10.6667H47.4667C50.4536 10.6667 51.9472 10.6667 53.088 11.248C54.0915 11.7593 54.9075 12.5752 55.4187 13.5787C56 14.7196 56 16.2131 56 19.2V53.3334L47.1352 48.9008C46.4632 48.5648 46.1272 48.3968 45.7749 48.2784C45.4624 48.1734 45.1405 48.0974 44.8139 48.0515C44.4459 48 44.0701 48 43.3189 48H16.5333C13.5464 48 12.0529 48 10.9121 47.4187C9.90851 46.9075 9.09261 46.0915 8.58131 45.088C8 43.9472 8 42.4536 8 39.4667V19.2Z" stroke="white" stroke-width="3.264" stroke-linecap="round" stroke-linejoin="round"/>
</svg>
