<svg width="67" height="63" viewBox="0 0 67 63" fill="none" xmlns="http://www.w3.org/2000/svg">
<path d="M33.5 28.875C36.2607 28.875 38.9594 28.1052 41.2548 26.663C43.5503 25.2208 45.3393 23.171 46.3958 20.7727C47.4523 18.3744 47.7287 15.7354 47.1901 13.1894C46.6515 10.6434 45.3221 8.30479 43.37 6.46923C41.4179 4.63367 38.9308 3.38363 36.2231 2.8772C33.5155 2.37077 30.7089 2.63069 28.1584 3.62409C25.6078 4.61749 23.4278 6.29975 21.8941 8.45815C20.3603 10.6165 19.5417 13.1541 19.5417 15.75C19.5461 19.2297 21.0181 22.5657 23.6349 25.0262C26.2516 27.4867 29.7994 28.8708 33.5 28.875ZM33.5 7.87501C35.1564 7.87501 36.7756 8.33687 38.1529 9.20218C39.5302 10.0675 40.6036 11.2974 41.2375 12.7364C41.8714 14.1753 42.0372 15.7587 41.7141 17.2863C41.3909 18.8139 40.5933 20.2171 39.422 21.3185C38.2508 22.4198 36.7585 23.1698 35.1339 23.4737C33.5093 23.7775 31.8254 23.6216 30.295 23.0256C28.7647 22.4295 27.4567 21.4202 26.5364 20.1251C25.6162 18.8301 25.125 17.3075 25.125 15.75C25.125 13.6614 26.0074 11.6584 27.578 10.1815C29.1486 8.70469 31.2788 7.87501 33.5 7.87501ZM11.1667 60.375H55.8333C56.5737 60.375 57.2838 60.0984 57.8073 59.6062C58.3309 59.1139 58.625 58.4462 58.625 57.75V47.25C58.6206 43.7703 57.1485 40.4343 54.5318 37.9738C51.9151 35.5133 48.3673 34.1292 44.6667 34.125H22.3333C18.6327 34.1292 15.0849 35.5133 12.4682 37.9738C9.85146 40.4343 8.37943 43.7703 8.375 47.25V57.75C8.375 58.4462 8.66912 59.1139 9.19266 59.6062C9.7162 60.0984 10.4263 60.375 11.1667 60.375ZM13.9583 47.25C13.9583 45.1614 14.8407 43.1584 16.4113 41.6815C17.9819 40.2047 20.1121 39.375 22.3333 39.375H44.6667C46.8879 39.375 49.0181 40.2047 50.5887 41.6815C52.1593 43.1584 53.0417 45.1614 53.0417 47.25V55.125H13.9583V47.25Z" fill="white"/>
</svg>
