<svg width="79" height="64" viewBox="0 0 79 64" fill="none" xmlns="http://www.w3.org/2000/svg">
<g clip-path="url(#clip0_55_210)">
<path d="M78.0023 36L65.816 16.28L69.911 15.68C71.0902 15.504 71.9733 14.676 71.9733 13.68C71.9733 12.556 70.8534 11.648 69.467 11.648C69.3091 11.648 69.1562 11.66 69.0081 11.684L65.1746 12.244C60.2755 9.22403 54.0738 7.40403 47.3491 7.40403C46.313 7.40403 45.2868 7.44803 44.2754 7.53203C44.0978 5.53203 42.0207 4.00403 39.5045 4.00403C39.4897 4.00403 39.4798 4.00403 39.465 4.00403C36.7416 4.00403 34.5313 5.79603 34.5313 8.00403V8.80403C26.0749 10.148 18.9851 14.112 14.4708 19.592L10.7508 20.204C9.48279 20.3 8.49604 21.16 8.49604 22.204C8.49604 23.312 9.60613 24.212 10.9728 24.212C11.0517 24.212 11.1306 24.208 11.2047 24.204H11.6388L13.3656 24.004L0.932646 44.004H-0.00476074C-0.00476074 48.404 6.60643 52.004 14.7964 52.004C22.9864 52.004 29.5976 48.404 29.5976 44.004H28.6602L16.0298 23.524H16.5232C17.3718 23.4 18.0576 22.948 18.3931 22.336C18.4967 21.964 21.8516 16.004 34.5313 12.884V56.004H29.5976V60.004H19.7301V64.004H59.1999V60.004H49.3325V56.004H44.3987V11.524C45.3904 11.4 46.54 11.328 47.7043 11.328C53.388 11.328 58.5832 13.004 62.5844 15.784L62.5548 15.764L50.2699 36.004H49.3325C49.3325 40.404 55.9436 44.004 64.1336 44.004C72.3236 44.004 78.9348 40.404 78.9348 36.004H77.9974L78.0023 36ZM24.6688 44H4.9339L14.8013 28.24L24.6688 44ZM54.2711 36L64.1386 20.24L74.006 36H54.2711Z" fill="white"/>
</g>
<defs>
<clipPath id="clip0_55_210">
<rect width="78.9396" height="64" fill="white"/>
</clipPath>
</defs>
</svg>
